<?xml version="1.0" encoding="us-ascii" standalone="no"?><svg xmlns="http://www.w3.org/2000/svg" xmlns:xlink="http://www.w3.org/1999/xlink" contentStyleType="text/css" height="802px" preserveAspectRatio="none" style="width:2543px;height:802px;background:#FFFFFF;" version="1.1" viewBox="0 0 2543 802" width="2543px" zoomAndPan="magnify"><defs/><g><!--cluster courses--><g id="cluster_courses"><path d="M8.5,38.59 L73.5,38.59 A3.75,3.75 0 0 1 76,41.09 L83,60.8869 L629.5,60.8869 A2.5,2.5 0 0 1 632,63.3869 L632,568.29 A2.5,2.5 0 0 1 629.5,570.79 L8.5,570.79 A2.5,2.5 0 0 1 6,568.29 L6,41.09 A2.5,2.5 0 0 1 8.5,38.59 " fill="none" style="stroke:#000000;stroke-width:1.5;"/><line style="stroke:#000000;stroke-width:1.5;" x1="6" x2="83" y1="60.8869" y2="60.8869"/><text fill="#000000" font-family="sans-serif" font-size="14" font-weight="bold" lengthAdjust="spacing" textLength="64" x="10" y="53.5851">courses</text></g><!--cluster quiz--><g id="cluster_quiz"><path d="M658.5,414.75 L692.5,414.75 A3.75,3.75 0 0 1 695,417.25 L702,437.0469 L1023.5,437.0469 A2.5,2.5 0 0 1 1026,439.5469 L1026,793.07 A2.5,2.5 0 0 1 1023.5,795.57 L658.5,795.57 A2.5,2.5 0 0 1 656,793.07 L656,417.25 A2.5,2.5 0 0 1 658.5,414.75 " fill="none" style="stroke:#000000;stroke-width:1.5;"/><line style="stroke:#000000;stroke-width:1.5;" x1="656" x2="702" y1="437.0469" y2="437.0469"/><text fill="#000000" font-family="sans-serif" font-size="14" font-weight="bold" lengthAdjust="spacing" textLength="33" x="660" y="429.7451">quiz</text></g><!--cluster filesystem--><g id="cluster_filesystem"><path d="M872.5,6 L954.5,6 A3.75,3.75 0 0 1 957,8.5 L964,28.2969 L1287.5,28.2969 A2.5,2.5 0 0 1 1290,30.7969 L1290,363.25 A2.5,2.5 0 0 1 1287.5,365.75 L872.5,365.75 A2.5,2.5 0 0 1 870,363.25 L870,8.5 A2.5,2.5 0 0 1 872.5,6 " fill="none" style="stroke:#000000;stroke-width:1.5;"/><line style="stroke:#000000;stroke-width:1.5;" x1="870" x2="964" y1="28.2969" y2="28.2969"/><text fill="#000000" font-family="sans-serif" font-size="14" font-weight="bold" lengthAdjust="spacing" textLength="81" x="874" y="20.9951">filesystem</text></g><!--cluster interfaces--><g id="cluster_interfaces"><path d="M1052.5,439.19 L1133.5,439.19 A3.75,3.75 0 0 1 1136,441.69 L1143,461.4869 L1502.5,461.4869 A2.5,2.5 0 0 1 1505,463.9869 L1505,568.29 A2.5,2.5 0 0 1 1502.5,570.79 L1052.5,570.79 A2.5,2.5 0 0 1 1050,568.29 L1050,441.69 A2.5,2.5 0 0 1 1052.5,439.19 " fill="none" style="stroke:#000000;stroke-width:1.5;"/><line style="stroke:#000000;stroke-width:1.5;" x1="1050" x2="1143" y1="461.4869" y2="461.4869"/><text fill="#000000" font-family="sans-serif" font-size="14" font-weight="bold" lengthAdjust="spacing" textLength="80" x="1054" y="454.1851">interfaces</text></g><!--cluster users--><g id="cluster_users"><path d="M1531.5,87.48 L1577.5,87.48 A3.75,3.75 0 0 1 1580,89.98 L1587,109.7769 L2533.5,109.7769 A2.5,2.5 0 0 1 2536,112.2769 L2536,600.88 A2.5,2.5 0 0 1 2533.5,603.38 L1531.5,603.38 A2.5,2.5 0 0 1 1529,600.88 L1529,89.98 A2.5,2.5 0 0 1 1531.5,87.48 " fill="none" style="stroke:#000000;stroke-width:1.5;"/><line style="stroke:#000000;stroke-width:1.5;" x1="1529" x2="1587" y1="109.7769" y2="109.7769"/><text fill="#000000" font-family="sans-serif" font-size="14" font-weight="bold" lengthAdjust="spacing" textLength="45" x="1533" y="102.4751">users</text></g><!--class Course--><g id="elem_Course"><rect codeLine="3" fill="#F1F1F1" height="243.5625" id="Course" rx="2.5" ry="2.5" style="stroke:#181818;stroke-width:0.5;" width="594" x="22" y="73.59"/><ellipse cx="289.75" cy="89.59" fill="#A9DCDF" rx="11" ry="11" style="stroke:#181818;stroke-width:1.0;"/><path d="M289.8594,84.9338 L288.7031,90.0119 L291.0313,90.0119 L289.8594,84.9338 Z M288.375,82.6994 L291.3594,82.6994 L294.7188,95.09 L292.2656,95.09 L291.5,92.0275 L288.2188,92.0275 L287.4688,95.09 L285.0313,95.09 L288.375,82.6994 Z " fill="#000000"/><text fill="#000000" font-family="sans-serif" font-size="14" font-style="italic" lengthAdjust="spacing" textLength="50" x="310.25" y="94.4367">Course</text><line style="stroke:#181818;stroke-width:0.5;" x1="23" x2="615" y1="105.59" y2="105.59"/><rect fill="none" height="6" style="stroke:#C82930;stroke-width:1.0;" width="6" x="30" y="116.2384"/><text fill="#000000" font-family="sans-serif" font-size="14" lengthAdjust="spacing" textLength="109" x="42" y="122.5851">courseId: String</text><rect fill="none" height="6" style="stroke:#C82930;stroke-width:1.0;" width="6" x="30" y="132.5353"/><text fill="#000000" font-family="sans-serif" font-size="14" lengthAdjust="spacing" textLength="126" x="42" y="138.882">courseTitle: String</text><rect fill="none" height="6" style="stroke:#C82930;stroke-width:1.0;" width="6" x="30" y="148.8322"/><text fill="#000000" font-family="sans-serif" font-size="14" lengthAdjust="spacing" textLength="126" x="42" y="155.1789">description: String</text><rect fill="none" height="6" style="stroke:#C82930;stroke-width:1.0;" width="6" x="30" y="165.1291"/><text fill="#000000" font-family="sans-serif" font-size="14" lengthAdjust="spacing" textLength="123" x="42" y="171.4757">courseTag: String</text><rect fill="none" height="6" style="stroke:#C82930;stroke-width:1.0;" width="6" x="30" y="181.4259"/><text fill="#000000" font-family="sans-serif" font-size="14" lengthAdjust="spacing" textLength="88" x="42" y="187.7726">progress: int</text><rect fill="none" height="6" style="stroke:#C82930;stroke-width:1.0;" width="6" x="30" y="197.7228"/><text fill="#000000" font-family="sans-serif" font-size="14" lengthAdjust="spacing" textLength="141" x="42" y="204.0695">quizzes: List&lt;Quiz&gt;</text><line style="stroke:#181818;stroke-width:0.5;" x1="23" x2="615" y1="211.3713" y2="211.3713"/><ellipse cx="33" cy="225.0197" fill="#84BE84" rx="3" ry="3" style="stroke:#038048;stroke-width:1.0;"/><text fill="#000000" font-family="sans-serif" font-size="14" lengthAdjust="spacing" textLength="568" x="42" y="228.3664">Course(courseId: String, courseTitle: String, description: String, courseTag: String)</text><ellipse cx="33" cy="241.3166" fill="#84BE84" rx="3" ry="3" style="stroke:#038048;stroke-width:1.0;"/><text fill="#000000" font-family="sans-serif" font-size="14" lengthAdjust="spacing" textLength="193" x="42" y="244.6632">conductAssessment(): Quiz</text><ellipse cx="33" cy="257.6134" fill="#84BE84" rx="3" ry="3" style="stroke:#038048;stroke-width:1.0;"/><text fill="#000000" font-family="sans-serif" font-size="14" lengthAdjust="spacing" textLength="132" x="42" y="260.9601">quizzesCount(): int</text><ellipse cx="33" cy="273.9103" fill="#84BE84" rx="3" ry="3" style="stroke:#038048;stroke-width:1.0;"/><text fill="#000000" font-family="sans-serif" font-size="14" lengthAdjust="spacing" textLength="183" x="42" y="277.257">compareTo(o: Course): int</text><ellipse cx="33" cy="290.2072" fill="#84BE84" rx="3" ry="3" style="stroke:#038048;stroke-width:1.0;"/><text fill="#000000" font-family="sans-serif" font-size="14" font-style="italic" lengthAdjust="spacing" textLength="109" x="42" y="293.5539">getLink(): String</text><ellipse cx="33" cy="306.5041" fill="#84BE84" rx="3" ry="3" style="stroke:#038048;stroke-width:1.0;"/><text fill="#000000" font-family="sans-serif" font-size="14" font-style="italic" lengthAdjust="spacing" textLength="131" x="42" y="309.8507">setLink(link: String)</text></g><!--class TextCourse--><g id="elem_TextCourse"><rect codeLine="18" fill="#F1F1F1" height="80.5938" id="TextCourse" rx="2.5" ry="2.5" style="stroke:#181818;stroke-width:0.5;" width="164" x="123" y="474.19"/><ellipse cx="161.4" cy="490.19" fill="#ADD1B2" rx="11" ry="11" style="stroke:#181818;stroke-width:1.0;"/><path d="M164.3688,495.8306 Q163.7906,496.1275 163.15,496.2681 Q162.5094,496.4244 161.8063,496.4244 Q159.3063,496.4244 157.9781,494.7838 Q156.6656,493.1275 156.6656,490.0025 Q156.6656,486.8775 157.9781,485.2213 Q159.3063,483.565 161.8063,483.565 Q162.5094,483.565 163.15,483.7213 Q163.8063,483.8775 164.3688,484.1744 L164.3688,486.8931 Q163.7438,486.315 163.15,486.0494 Q162.5563,485.7681 161.9313,485.7681 Q160.5875,485.7681 159.9,486.8463 Q159.2125,487.9088 159.2125,490.0025 Q159.2125,492.0963 159.9,493.1744 Q160.5875,494.2369 161.9313,494.2369 Q162.5563,494.2369 163.15,493.9713 Q163.7438,493.69 164.3688,493.1119 L164.3688,495.8306 Z " fill="#000000"/><text fill="#000000" font-family="sans-serif" font-size="14" lengthAdjust="spacing" textLength="80" x="180.6" y="495.0367">TextCourse</text><line style="stroke:#181818;stroke-width:0.5;" x1="124" x2="286" y1="506.19" y2="506.19"/><rect fill="none" height="6" style="stroke:#C82930;stroke-width:1.0;" width="6" x="131" y="516.8384"/><text fill="#000000" font-family="sans-serif" font-size="14" lengthAdjust="spacing" textLength="138" x="143" y="523.1851">resourceLink: String</text><line style="stroke:#181818;stroke-width:0.5;" x1="124" x2="286" y1="530.4869" y2="530.4869"/><ellipse cx="134" cy="544.1353" fill="#84BE84" rx="3" ry="3" style="stroke:#038048;stroke-width:1.0;"/><text fill="#000000" font-family="sans-serif" font-size="14" lengthAdjust="spacing" textLength="102" x="143" y="547.482">TextCourse(...)</text></g><!--class VideoCourse--><g id="elem_VideoCourse"><rect codeLine="23" fill="#F1F1F1" height="80.5938" id="VideoCourse" rx="2.5" ry="2.5" style="stroke:#181818;stroke-width:0.5;" width="137" x="322.5" y="474.19"/><ellipse cx="344.7" cy="490.19" fill="#ADD1B2" rx="11" ry="11" style="stroke:#181818;stroke-width:1.0;"/><path d="M347.6688,495.8306 Q347.0906,496.1275 346.45,496.2681 Q345.8094,496.4244 345.1063,496.4244 Q342.6063,496.4244 341.2781,494.7838 Q339.9656,493.1275 339.9656,490.0025 Q339.9656,486.8775 341.2781,485.2213 Q342.6063,483.565 345.1063,483.565 Q345.8094,483.565 346.45,483.7213 Q347.1063,483.8775 347.6688,484.1744 L347.6688,486.8931 Q347.0438,486.315 346.45,486.0494 Q345.8563,485.7681 345.2313,485.7681 Q343.8875,485.7681 343.2,486.8463 Q342.5125,487.9088 342.5125,490.0025 Q342.5125,492.0963 343.2,493.1744 Q343.8875,494.2369 345.2313,494.2369 Q345.8563,494.2369 346.45,493.9713 Q347.0438,493.69 347.6688,493.1119 L347.6688,495.8306 Z " fill="#000000"/><text fill="#000000" font-family="sans-serif" font-size="14" lengthAdjust="spacing" textLength="89" x="360.3" y="495.0367">VideoCourse</text><line style="stroke:#181818;stroke-width:0.5;" x1="323.5" x2="458.5" y1="506.19" y2="506.19"/><rect fill="none" height="6" style="stroke:#C82930;stroke-width:1.0;" width="6" x="330.5" y="516.8384"/><text fill="#000000" font-family="sans-serif" font-size="14" lengthAdjust="spacing" textLength="104" x="342.5" y="523.1851">videoUrl: String</text><line style="stroke:#181818;stroke-width:0.5;" x1="323.5" x2="458.5" y1="530.4869" y2="530.4869"/><ellipse cx="333.5" cy="544.1353" fill="#84BE84" rx="3" ry="3" style="stroke:#038048;stroke-width:1.0;"/><text fill="#000000" font-family="sans-serif" font-size="14" lengthAdjust="spacing" textLength="111" x="342.5" y="547.482">VideoCourse(...)</text></g><!--class Quiz--><g id="elem_Quiz"><rect codeLine="30" fill="#F1F1F1" height="129.4844" id="Quiz" rx="2.5" ry="2.5" style="stroke:#181818;stroke-width:0.5;" width="337" x="672.5" y="449.75"/><ellipse cx="821.25" cy="465.75" fill="#ADD1B2" rx="11" ry="11" style="stroke:#181818;stroke-width:1.0;"/><path d="M824.2188,471.3906 Q823.6406,471.6875 823,471.8281 Q822.3594,471.9844 821.6563,471.9844 Q819.1563,471.9844 817.8281,470.3438 Q816.5156,468.6875 816.5156,465.5625 Q816.5156,462.4375 817.8281,460.7813 Q819.1563,459.125 821.6563,459.125 Q822.3594,459.125 823,459.2813 Q823.6563,459.4375 824.2188,459.7344 L824.2188,462.4531 Q823.5938,461.875 823,461.6094 Q822.4063,461.3281 821.7813,461.3281 Q820.4375,461.3281 819.75,462.4063 Q819.0625,463.4688 819.0625,465.5625 Q819.0625,467.6563 819.75,468.7344 Q820.4375,469.7969 821.7813,469.7969 Q822.4063,469.7969 823,469.5313 Q823.5938,469.25 824.2188,468.6719 L824.2188,471.3906 Z " fill="#000000"/><text fill="#000000" font-family="sans-serif" font-size="14" lengthAdjust="spacing" textLength="31" x="841.75" y="470.5967">Quiz</text><line style="stroke:#181818;stroke-width:0.5;" x1="673.5" x2="1008.5" y1="481.75" y2="481.75"/><rect fill="none" height="6" style="stroke:#C82930;stroke-width:1.0;" width="6" x="680.5" y="492.3984"/><text fill="#000000" font-family="sans-serif" font-size="14" lengthAdjust="spacing" textLength="107" x="692.5" y="498.7451">quizTitle: String</text><rect fill="none" height="6" style="stroke:#C82930;stroke-width:1.0;" width="6" x="680.5" y="508.6953"/><text fill="#000000" font-family="sans-serif" font-size="14" lengthAdjust="spacing" textLength="188" x="692.5" y="515.042">questions: List&lt;Question&gt;</text><line style="stroke:#181818;stroke-width:0.5;" x1="673.5" x2="1008.5" y1="522.3438" y2="522.3438"/><ellipse cx="683.5" cy="535.9922" fill="#84BE84" rx="3" ry="3" style="stroke:#038048;stroke-width:1.0;"/><text fill="#000000" font-family="sans-serif" font-size="14" lengthAdjust="spacing" textLength="115" x="692.5" y="539.3389">Quiz(title: String)</text><ellipse cx="683.5" cy="552.2891" fill="#84BE84" rx="3" ry="3" style="stroke:#038048;stroke-width:1.0;"/><text fill="#000000" font-family="sans-serif" font-size="14" lengthAdjust="spacing" textLength="311" x="692.5" y="555.6357">Quiz(title: String, questions: List&lt;Question&gt;)</text><ellipse cx="683.5" cy="568.5859" fill="#84BE84" rx="3" ry="3" style="stroke:#038048;stroke-width:1.0;"/><text fill="#000000" font-family="sans-serif" font-size="14" lengthAdjust="spacing" textLength="232" x="692.5" y="571.9326">addQuestion(question: Question)</text></g><!--class Question--><g id="elem_Question"><rect codeLine="38" fill="#F1F1F1" height="113.1875" id="Question" rx="2.5" ry="2.5" style="stroke:#181818;stroke-width:0.5;" width="175" x="753.5" y="666.38"/><ellipse cx="805.25" cy="682.38" fill="#ADD1B2" rx="11" ry="11" style="stroke:#181818;stroke-width:1.0;"/><path d="M808.2188,688.0206 Q807.6406,688.3175 807,688.4581 Q806.3594,688.6144 805.6563,688.6144 Q803.1563,688.6144 801.8281,686.9738 Q800.5156,685.3175 800.5156,682.1925 Q800.5156,679.0675 801.8281,677.4113 Q803.1563,675.755 805.6563,675.755 Q806.3594,675.755 807,675.9113 Q807.6563,676.0675 808.2188,676.3644 L808.2188,679.0831 Q807.5938,678.505 807,678.2394 Q806.4063,677.9581 805.7813,677.9581 Q804.4375,677.9581 803.75,679.0363 Q803.0625,680.0988 803.0625,682.1925 Q803.0625,684.2863 803.75,685.3644 Q804.4375,686.4269 805.7813,686.4269 Q806.4063,686.4269 807,686.1613 Q807.5938,685.88 808.2188,685.3019 L808.2188,688.0206 Z " fill="#000000"/><text fill="#000000" font-family="sans-serif" font-size="14" lengthAdjust="spacing" textLength="63" x="825.75" y="687.2267">Question</text><line style="stroke:#181818;stroke-width:0.5;" x1="754.5" x2="927.5" y1="698.38" y2="698.38"/><rect fill="none" height="6" style="stroke:#C82930;stroke-width:1.0;" width="6" x="761.5" y="709.0284"/><text fill="#000000" font-family="sans-serif" font-size="14" lengthAdjust="spacing" textLength="140" x="773.5" y="715.3751">questionText: String</text><rect fill="none" height="6" style="stroke:#C82930;stroke-width:1.0;" width="6" x="761.5" y="725.3253"/><text fill="#000000" font-family="sans-serif" font-size="14" lengthAdjust="spacing" textLength="148" x="773.5" y="731.672">options: List&lt;String&gt;</text><rect fill="none" height="6" style="stroke:#C82930;stroke-width:1.0;" width="6" x="761.5" y="741.6222"/><text fill="#000000" font-family="sans-serif" font-size="14" lengthAdjust="spacing" textLength="149" x="773.5" y="747.9689">correctAnswer: String</text><line style="stroke:#181818;stroke-width:0.5;" x1="754.5" x2="927.5" y1="755.2706" y2="755.2706"/><ellipse cx="764.5" cy="768.9191" fill="#84BE84" rx="3" ry="3" style="stroke:#038048;stroke-width:1.0;"/><text fill="#000000" font-family="sans-serif" font-size="14" lengthAdjust="spacing" textLength="85" x="773.5" y="772.2657">Question(...)</text></g><!--class Read_Write--><g id="elem_Read_Write"><rect codeLine="47" fill="#F1F1F1" height="308.75" id="Read_Write" rx="2.5" ry="2.5" style="stroke:#181818;stroke-width:0.5;" width="388" x="886" y="41"/><ellipse cx="1036.75" cy="57" fill="#ADD1B2" rx="11" ry="11" style="stroke:#181818;stroke-width:1.0;"/><path d="M1039.7188,62.6406 Q1039.1406,62.9375 1038.5,63.0781 Q1037.8594,63.2344 1037.1563,63.2344 Q1034.6563,63.2344 1033.3281,61.5938 Q1032.0156,59.9375 1032.0156,56.8125 Q1032.0156,53.6875 1033.3281,52.0313 Q1034.6563,50.375 1037.1563,50.375 Q1037.8594,50.375 1038.5,50.5313 Q1039.1563,50.6875 1039.7188,50.9844 L1039.7188,53.7031 Q1039.0938,53.125 1038.5,52.8594 Q1037.9063,52.5781 1037.2813,52.5781 Q1035.9375,52.5781 1035.25,53.6563 Q1034.5625,54.7188 1034.5625,56.8125 Q1034.5625,58.9063 1035.25,59.9844 Q1035.9375,61.0469 1037.2813,61.0469 Q1037.9063,61.0469 1038.5,60.7813 Q1039.0938,60.5 1039.7188,59.9219 L1039.7188,62.6406 Z " fill="#000000"/><text fill="#000000" font-family="sans-serif" font-size="14" lengthAdjust="spacing" textLength="78" x="1057.25" y="61.8467">Read_Write</text><line style="stroke:#181818;stroke-width:0.5;" x1="887" x2="1273" y1="73" y2="73"/><rect fill="none" height="6" style="stroke:#C82930;stroke-width:1.0;" width="6" x="894" y="83.6484"/><text fill="#000000" font-family="sans-serif" font-size="14" lengthAdjust="spacing" text-decoration="underline" textLength="113" x="906" y="89.9951">FILEPATH: String</text><rect fill="none" height="6" style="stroke:#C82930;stroke-width:1.0;" width="6" x="894" y="99.9453"/><text fill="#000000" font-family="sans-serif" font-size="14" lengthAdjust="spacing" text-decoration="underline" textLength="177" x="906" y="106.292">SYSTEM_FILEPATH: String</text><rect fill="none" height="6" style="stroke:#C82930;stroke-width:1.0;" width="6" x="894" y="116.2422"/><text fill="#000000" font-family="sans-serif" font-size="14" lengthAdjust="spacing" text-decoration="underline" textLength="202" x="906" y="122.5889">USERS_CSV_FILEPATH: String</text><rect fill="none" height="6" style="stroke:#C82930;stroke-width:1.0;" width="6" x="894" y="132.5391"/><text fill="#000000" font-family="sans-serif" font-size="14" lengthAdjust="spacing" text-decoration="underline" textLength="97" x="906" y="138.8857">ID_FILE: String</text><rect fill="none" height="6" style="stroke:#C82930;stroke-width:1.0;" width="6" x="894" y="148.8359"/><text fill="#000000" font-family="sans-serif" font-size="14" lengthAdjust="spacing" text-decoration="underline" textLength="178" x="906" y="155.1826">Courses_FILEPATH: String</text><line style="stroke:#181818;stroke-width:0.5;" x1="887" x2="1273" y1="162.4844" y2="162.4844"/><ellipse cx="897" cy="176.1328" fill="#84BE84" rx="3" ry="3" style="stroke:#038048;stroke-width:1.0;"/><text fill="#000000" font-family="sans-serif" font-size="14" lengthAdjust="spacing" textLength="111" x="906" y="179.4795">generateId(): int</text><ellipse cx="897" cy="192.4297" fill="#84BE84" rx="3" ry="3" style="stroke:#038048;stroke-width:1.0;"/><text fill="#000000" font-family="sans-serif" font-size="14" lengthAdjust="spacing" textLength="86" x="906" y="195.7764">setFilePath()</text><ellipse cx="897" cy="208.7266" fill="#84BE84" rx="3" ry="3" style="stroke:#038048;stroke-width:1.0;"/><text fill="#000000" font-family="sans-serif" font-size="14" lengthAdjust="spacing" textLength="362" x="906" y="212.0732">Signup(userName: String, password: String, role: int)</text><ellipse cx="897" cy="225.0234" fill="#84BE84" rx="3" ry="3" style="stroke:#038048;stroke-width:1.0;"/><text fill="#000000" font-family="sans-serif" font-size="14" lengthAdjust="spacing" textLength="317" x="906" y="228.3701">Login(userName: String, password: String): int</text><ellipse cx="897" cy="241.3203" fill="#84BE84" rx="3" ry="3" style="stroke:#038048;stroke-width:1.0;"/><text fill="#000000" font-family="sans-serif" font-size="14" lengthAdjust="spacing" textLength="277" x="906" y="244.667">initializeJSON(userName: String, role: int)</text><ellipse cx="897" cy="257.6172" fill="#84BE84" rx="3" ry="3" style="stroke:#038048;stroke-width:1.0;"/><text fill="#000000" font-family="sans-serif" font-size="14" lengthAdjust="spacing" textLength="162" x="906" y="260.9639">writeToJson(user: User)</text><ellipse cx="897" cy="273.9141" fill="#84BE84" rx="3" ry="3" style="stroke:#038048;stroke-width:1.0;"/><text fill="#000000" font-family="sans-serif" font-size="14" lengthAdjust="spacing" textLength="326" x="906" y="277.2607">readFromJson(userName: String, role: int): User</text><ellipse cx="897" cy="290.2109" fill="#84BE84" rx="3" ry="3" style="stroke:#038048;stroke-width:1.0;"/><text fill="#000000" font-family="sans-serif" font-size="14" lengthAdjust="spacing" textLength="290" x="906" y="293.5576">deleteLineByUsername(userName: String)</text><ellipse cx="897" cy="306.5078" fill="#84BE84" rx="3" ry="3" style="stroke:#038048;stroke-width:1.0;"/><text fill="#000000" font-family="sans-serif" font-size="14" lengthAdjust="spacing" textLength="251" x="906" y="309.8545">WriteToCoursesFile(course: Course)</text><ellipse cx="897" cy="322.8047" fill="#84BE84" rx="3" ry="3" style="stroke:#038048;stroke-width:1.0;"/><text fill="#000000" font-family="sans-serif" font-size="14" lengthAdjust="spacing" textLength="268" x="906" y="326.1514">ReadFromCoursesFile(): List&lt;Course&gt;</text><ellipse cx="897" cy="339.1016" fill="#84BE84" rx="3" ry="3" style="stroke:#038048;stroke-width:1.0;"/><text fill="#000000" font-family="sans-serif" font-size="14" lengthAdjust="spacing" textLength="211" x="906" y="342.4482">deleteCourse(course: Course)</text></g><!--class Assessable--><g id="elem_Assessable"><rect codeLine="69" fill="#F1F1F1" height="80.5938" id="Assessable" rx="2.5" ry="2.5" style="stroke:#181818;stroke-width:0.5;" width="219" x="1066.5" y="474.19"/><ellipse cx="1132.25" cy="490.19" fill="#B4A7E5" rx="11" ry="11" style="stroke:#181818;stroke-width:1.0;"/><path d="M1128.1719,485.9556 L1128.1719,483.7994 L1135.5625,483.7994 L1135.5625,485.9556 L1133.0938,485.9556 L1133.0938,494.0338 L1135.5625,494.0338 L1135.5625,496.19 L1128.1719,496.19 L1128.1719,494.0338 L1130.6406,494.0338 L1130.6406,485.9556 L1128.1719,485.9556 Z " fill="#000000"/><text fill="#000000" font-family="sans-serif" font-size="14" font-style="italic" lengthAdjust="spacing" textLength="79" x="1152.75" y="495.0367">Assessable</text><line style="stroke:#181818;stroke-width:0.5;" x1="1067.5" x2="1284.5" y1="506.19" y2="506.19"/><line style="stroke:#181818;stroke-width:0.5;" x1="1067.5" x2="1284.5" y1="514.19" y2="514.19"/><ellipse cx="1077.5" cy="527.8384" fill="#84BE84" rx="3" ry="3" style="stroke:#038048;stroke-width:1.0;"/><text fill="#000000" font-family="sans-serif" font-size="14" lengthAdjust="spacing" textLength="193" x="1086.5" y="531.1851">conductAssessment(): Quiz</text><ellipse cx="1077.5" cy="544.1353" fill="#84BE84" rx="3" ry="3" style="stroke:#038048;stroke-width:1.0;"/><text fill="#000000" font-family="sans-serif" font-size="14" lengthAdjust="spacing" textLength="132" x="1086.5" y="547.482">quizzesCount(): int</text></g><!--class Comparable--><g id="elem_Comparable"><rect codeLine="73" fill="#F1F1F1" height="64.2969" id="Comparable" rx="2.5" ry="2.5" style="stroke:#181818;stroke-width:0.5;" width="168" x="1321" y="482.34"/><ellipse cx="1354.9" cy="498.34" fill="#B4A7E5" rx="11" ry="11" style="stroke:#181818;stroke-width:1.0;"/><path d="M1350.8219,494.1056 L1350.8219,491.9494 L1358.2125,491.9494 L1358.2125,494.1056 L1355.7438,494.1056 L1355.7438,502.1838 L1358.2125,502.1838 L1358.2125,504.34 L1350.8219,504.34 L1350.8219,502.1838 L1353.2906,502.1838 L1353.2906,494.1056 L1350.8219,494.1056 Z " fill="#000000"/><text fill="#000000" font-family="sans-serif" font-size="14" font-style="italic" lengthAdjust="spacing" textLength="83" x="1373.1" y="503.1867">Comparable</text><rect fill="#FFFFFF" height="15.9688" style="stroke:#181818;stroke-width:1.0;stroke-dasharray:2.0,2.0;" width="9" x="1483" y="479.34"/><text fill="#000000" font-family="sans-serif" font-size="12" font-style="italic" lengthAdjust="spacing" textLength="7" x="1484" y="491.4787">T</text><line style="stroke:#181818;stroke-width:0.5;" x1="1322" x2="1488" y1="514.34" y2="514.34"/><line style="stroke:#181818;stroke-width:0.5;" x1="1322" x2="1488" y1="522.34" y2="522.34"/><ellipse cx="1332" cy="535.9884" fill="#84BE84" rx="3" ry="3" style="stroke:#038048;stroke-width:1.0;"/><text fill="#000000" font-family="sans-serif" font-size="14" lengthAdjust="spacing" textLength="142" x="1341" y="539.3351">compareTo(o: T): int</text></g><!--class User--><g id="elem_User"><rect codeLine="80" fill="#F1F1F1" height="145.7813" id="User" rx="2.5" ry="2.5" style="stroke:#181818;stroke-width:0.5;" width="202" x="1845" y="122.48"/><ellipse cx="1925.75" cy="138.48" fill="#A9DCDF" rx="11" ry="11" style="stroke:#181818;stroke-width:1.0;"/><path d="M1925.8594,133.8238 L1924.7031,138.9019 L1927.0313,138.9019 L1925.8594,133.8238 Z M1924.375,131.5894 L1927.3594,131.5894 L1930.7188,143.98 L1928.2656,143.98 L1927.5,140.9175 L1924.2188,140.9175 L1923.4688,143.98 L1921.0313,143.98 L1924.375,131.5894 Z " fill="#000000"/><text fill="#000000" font-family="sans-serif" font-size="14" font-style="italic" lengthAdjust="spacing" textLength="32" x="1946.25" y="143.3267">User</text><line style="stroke:#181818;stroke-width:0.5;" x1="1846" x2="2046" y1="154.48" y2="154.48"/><rect fill="none" height="6" style="stroke:#C82930;stroke-width:1.0;" width="6" x="1853" y="165.1284"/><text fill="#000000" font-family="sans-serif" font-size="14" lengthAdjust="spacing" textLength="38" x="1865" y="171.4751">id: int</text><rect fill="none" height="6" style="stroke:#C82930;stroke-width:1.0;" width="6" x="1853" y="181.4253"/><text fill="#000000" font-family="sans-serif" font-size="14" lengthAdjust="spacing" textLength="88" x="1865" y="187.772">name: String</text><ellipse cx="1856" cy="200.7222" fill="none" rx="3" ry="3" style="stroke:#038048;stroke-width:1.0;"/><text fill="#000000" font-family="sans-serif" font-size="14" lengthAdjust="spacing" text-decoration="underline" textLength="99" x="1865" y="204.0689">userCount: int</text><ellipse cx="1856" cy="217.0191" fill="none" rx="3" ry="3" style="stroke:#038048;stroke-width:1.0;"/><text fill="#000000" font-family="sans-serif" font-size="14" lengthAdjust="spacing" textLength="52" x="1865" y="220.3657">role: int</text><line style="stroke:#181818;stroke-width:0.5;" x1="1846" x2="2046" y1="227.6675" y2="227.6675"/><ellipse cx="1856" cy="241.3159" fill="#84BE84" rx="3" ry="3" style="stroke:#038048;stroke-width:1.0;"/><text fill="#000000" font-family="sans-serif" font-size="14" lengthAdjust="spacing" textLength="176" x="1865" y="244.6626">User(id: int, name: String)</text><ellipse cx="1856" cy="257.6128" fill="#84BE84" rx="3" ry="3" style="stroke:#038048;stroke-width:1.0;"/><text fill="#000000" font-family="sans-serif" font-size="14" font-style="italic" lengthAdjust="spacing" textLength="104" x="1865" y="260.9595">displayDetails()</text></g><!--class Student--><g id="elem_Student"><rect codeLine="89" fill="#F1F1F1" height="145.7813" id="Student" rx="2.5" ry="2.5" style="stroke:#181818;stroke-width:0.5;" width="243" x="1545.5" y="441.6"/><ellipse cx="1635.25" cy="457.6" fill="#ADD1B2" rx="11" ry="11" style="stroke:#181818;stroke-width:1.0;"/><path d="M1638.2188,463.2406 Q1637.6406,463.5375 1637,463.6781 Q1636.3594,463.8344 1635.6563,463.8344 Q1633.1563,463.8344 1631.8281,462.1938 Q1630.5156,460.5375 1630.5156,457.4125 Q1630.5156,454.2875 1631.8281,452.6313 Q1633.1563,450.975 1635.6563,450.975 Q1636.3594,450.975 1637,451.1313 Q1637.6563,451.2875 1638.2188,451.5844 L1638.2188,454.3031 Q1637.5938,453.725 1637,453.4594 Q1636.4063,453.1781 1635.7813,453.1781 Q1634.4375,453.1781 1633.75,454.2563 Q1633.0625,455.3188 1633.0625,457.4125 Q1633.0625,459.5063 1633.75,460.5844 Q1634.4375,461.6469 1635.7813,461.6469 Q1636.4063,461.6469 1637,461.3813 Q1637.5938,461.1 1638.2188,460.5219 L1638.2188,463.2406 Z " fill="#000000"/><text fill="#000000" font-family="sans-serif" font-size="14" lengthAdjust="spacing" textLength="55" x="1655.75" y="462.4467">Student</text><line style="stroke:#181818;stroke-width:0.5;" x1="1546.5" x2="1787.5" y1="473.6" y2="473.6"/><rect fill="none" height="6" style="stroke:#C82930;stroke-width:1.0;" width="6" x="1553.5" y="484.2484"/><text fill="#000000" font-family="sans-serif" font-size="14" lengthAdjust="spacing" textLength="162" x="1565.5" y="490.5951">courses: List&lt;Course&gt;</text><line style="stroke:#181818;stroke-width:0.5;" x1="1546.5" x2="1787.5" y1="497.8969" y2="497.8969"/><ellipse cx="1556.5" cy="511.5453" fill="#84BE84" rx="3" ry="3" style="stroke:#038048;stroke-width:1.0;"/><text fill="#000000" font-family="sans-serif" font-size="14" lengthAdjust="spacing" textLength="199" x="1565.5" y="514.892">Student(id: int, name: String)</text><ellipse cx="1556.5" cy="527.8422" fill="#84BE84" rx="3" ry="3" style="stroke:#038048;stroke-width:1.0;"/><text fill="#000000" font-family="sans-serif" font-size="14" lengthAdjust="spacing" textLength="104" x="1565.5" y="531.1889">displayDetails()</text><ellipse cx="1556.5" cy="544.1391" fill="#84BE84" rx="3" ry="3" style="stroke:#038048;stroke-width:1.0;"/><text fill="#000000" font-family="sans-serif" font-size="14" lengthAdjust="spacing" textLength="217" x="1565.5" y="547.4857">enrollInCourse(course: Course)</text><ellipse cx="1556.5" cy="560.4359" fill="#84BE84" rx="3" ry="3" style="stroke:#038048;stroke-width:1.0;"/><text fill="#000000" font-family="sans-serif" font-size="14" lengthAdjust="spacing" textLength="199" x="1565.5" y="563.7826">dropCourse(course: Course)</text><ellipse cx="1556.5" cy="576.7328" fill="#84BE84" rx="3" ry="3" style="stroke:#038048;stroke-width:1.0;"/><text fill="#000000" font-family="sans-serif" font-size="14" lengthAdjust="spacing" textLength="197" x="1565.5" y="580.0795">getCourses(): List&lt;Course&gt;</text></g><!--class Instructor--><g id="elem_Instructor"><rect codeLine="98" fill="#F1F1F1" height="145.7813" id="Instructor" rx="2.5" ry="2.5" style="stroke:#181818;stroke-width:0.5;" width="245" x="1823.5" y="441.6"/><ellipse cx="1908.75" cy="457.6" fill="#ADD1B2" rx="11" ry="11" style="stroke:#181818;stroke-width:1.0;"/><path d="M1911.7188,463.2406 Q1911.1406,463.5375 1910.5,463.6781 Q1909.8594,463.8344 1909.1563,463.8344 Q1906.6563,463.8344 1905.3281,462.1938 Q1904.0156,460.5375 1904.0156,457.4125 Q1904.0156,454.2875 1905.3281,452.6313 Q1906.6563,450.975 1909.1563,450.975 Q1909.8594,450.975 1910.5,451.1313 Q1911.1563,451.2875 1911.7188,451.5844 L1911.7188,454.3031 Q1911.0938,453.725 1910.5,453.4594 Q1909.9063,453.1781 1909.2813,453.1781 Q1907.9375,453.1781 1907.25,454.2563 Q1906.5625,455.3188 1906.5625,457.4125 Q1906.5625,459.5063 1907.25,460.5844 Q1907.9375,461.6469 1909.2813,461.6469 Q1909.9063,461.6469 1910.5,461.3813 Q1911.0938,461.1 1911.7188,460.5219 L1911.7188,463.2406 Z " fill="#000000"/><text fill="#000000" font-family="sans-serif" font-size="14" lengthAdjust="spacing" textLength="66" x="1929.25" y="462.4467">Instructor</text><line style="stroke:#181818;stroke-width:0.5;" x1="1824.5" x2="2067.5" y1="473.6" y2="473.6"/><rect fill="none" height="6" style="stroke:#C82930;stroke-width:1.0;" width="6" x="1831.5" y="484.2484"/><text fill="#000000" font-family="sans-serif" font-size="14" lengthAdjust="spacing" textLength="162" x="1843.5" y="490.5951">courses: List&lt;Course&gt;</text><line style="stroke:#181818;stroke-width:0.5;" x1="1824.5" x2="2067.5" y1="497.8969" y2="497.8969"/><ellipse cx="1834.5" cy="511.5453" fill="#84BE84" rx="3" ry="3" style="stroke:#038048;stroke-width:1.0;"/><text fill="#000000" font-family="sans-serif" font-size="14" lengthAdjust="spacing" textLength="210" x="1843.5" y="514.892">Instructor(id: int, name: String)</text><ellipse cx="1834.5" cy="527.8422" fill="#84BE84" rx="3" ry="3" style="stroke:#038048;stroke-width:1.0;"/><text fill="#000000" font-family="sans-serif" font-size="14" lengthAdjust="spacing" textLength="104" x="1843.5" y="531.1889">displayDetails()</text><ellipse cx="1834.5" cy="544.1391" fill="#84BE84" rx="3" ry="3" style="stroke:#038048;stroke-width:1.0;"/><text fill="#000000" font-family="sans-serif" font-size="14" lengthAdjust="spacing" textLength="193" x="1843.5" y="547.4857">addCourse(course: Course)</text><ellipse cx="1834.5" cy="560.4359" fill="#84BE84" rx="3" ry="3" style="stroke:#038048;stroke-width:1.0;"/><text fill="#000000" font-family="sans-serif" font-size="14" lengthAdjust="spacing" textLength="219" x="1843.5" y="563.7826">removeCourse(course: Course)</text><ellipse cx="1834.5" cy="576.7328" fill="#84BE84" rx="3" ry="3" style="stroke:#038048;stroke-width:1.0;"/><text fill="#000000" font-family="sans-serif" font-size="14" lengthAdjust="spacing" textLength="190" x="1843.5" y="580.0795">getCourses(): List&lt;Course)</text></g><!--class Admin--><g id="elem_Admin"><rect codeLine="107" fill="#F1F1F1" height="145.7813" id="Admin" rx="2.5" ry="2.5" style="stroke:#181818;stroke-width:0.5;" width="416" x="2104" y="441.6"/><ellipse cx="2286.25" cy="457.6" fill="#ADD1B2" rx="11" ry="11" style="stroke:#181818;stroke-width:1.0;"/><path d="M2289.2188,463.2406 Q2288.6406,463.5375 2288,463.6781 Q2287.3594,463.8344 2286.6563,463.8344 Q2284.1563,463.8344 2282.8281,462.1938 Q2281.5156,460.5375 2281.5156,457.4125 Q2281.5156,454.2875 2282.8281,452.6313 Q2284.1563,450.975 2286.6563,450.975 Q2287.3594,450.975 2288,451.1313 Q2288.6563,451.2875 2289.2188,451.5844 L2289.2188,454.3031 Q2288.5938,453.725 2288,453.4594 Q2287.4063,453.1781 2286.7813,453.1781 Q2285.4375,453.1781 2284.75,454.2563 Q2284.0625,455.3188 2284.0625,457.4125 Q2284.0625,459.5063 2284.75,460.5844 Q2285.4375,461.6469 2286.7813,461.6469 Q2287.4063,461.6469 2288,461.3813 Q2288.5938,461.1 2289.2188,460.5219 L2289.2188,463.2406 Z " fill="#000000"/><text fill="#000000" font-family="sans-serif" font-size="14" lengthAdjust="spacing" textLength="43" x="2306.75" y="462.4467">Admin</text><line style="stroke:#181818;stroke-width:0.5;" x1="2105" x2="2519" y1="473.6" y2="473.6"/><line style="stroke:#181818;stroke-width:0.5;" x1="2105" x2="2519" y1="481.6" y2="481.6"/><ellipse cx="2115" cy="495.2484" fill="#84BE84" rx="3" ry="3" style="stroke:#038048;stroke-width:1.0;"/><text fill="#000000" font-family="sans-serif" font-size="14" lengthAdjust="spacing" textLength="187" x="2124" y="498.5951">Admin(id: int, name: String)</text><ellipse cx="2115" cy="511.5453" fill="#84BE84" rx="3" ry="3" style="stroke:#038048;stroke-width:1.0;"/><text fill="#000000" font-family="sans-serif" font-size="14" lengthAdjust="spacing" textLength="104" x="2124" y="514.892">displayDetails()</text><ellipse cx="2115" cy="527.8422" fill="#84BE84" rx="3" ry="3" style="stroke:#038048;stroke-width:1.0;"/><text fill="#000000" font-family="sans-serif" font-size="14" lengthAdjust="spacing" textLength="390" x="2124" y="531.1889">createUser(userName: String, password: String, role: int)</text><ellipse cx="2115" cy="544.1391" fill="#84BE84" rx="3" ry="3" style="stroke:#038048;stroke-width:1.0;"/><text fill="#000000" font-family="sans-serif" font-size="14" lengthAdjust="spacing" textLength="206" x="2124" y="547.4857">deleteUser(userName: String)</text><ellipse cx="2115" cy="560.4359" fill="#84BE84" rx="3" ry="3" style="stroke:#038048;stroke-width:1.0;"/><text fill="#000000" font-family="sans-serif" font-size="14" lengthAdjust="spacing" textLength="211" x="2124" y="563.7826">createCourse(course: Course)</text><ellipse cx="2115" cy="576.7328" fill="#84BE84" rx="3" ry="3" style="stroke:#038048;stroke-width:1.0;"/><text fill="#000000" font-family="sans-serif" font-size="14" lengthAdjust="spacing" textLength="211" x="2124" y="580.0795">deleteCourse(course: Course)</text></g><!--reverse link Course to TextCourse--><g id="link_Course_TextCourse"><path codeLine="118" d="M269.3225,334.5594 C249.4025,389.9894 233.24,434.93 219.19,474.02 " fill="none" id="Course-backto-TextCourse" style="stroke:#181818;stroke-width:1.0;"/><polygon fill="none" points="275.41,317.62,263.676,332.5302,274.9689,336.5885,275.41,317.62" style="stroke:#181818;stroke-width:1.0;"/></g><!--reverse link Course to VideoCourse--><g id="link_Course_VideoCourse"><path codeLine="119" d="M350.5138,335.1736 C363.0938,390.6036 373.16,434.93 382.04,474.02 " fill="none" id="Course-backto-VideoCourse" style="stroke:#181818;stroke-width:1.0;"/><polygon fill="none" points="346.53,317.62,344.6626,336.5016,356.365,333.8457,346.53,317.62" style="stroke:#181818;stroke-width:1.0;"/></g><!--link Course to Assessable--><g id="link_Course_Assessable"><path codeLine="120" d="M616.17,298.22 C697.93,324.55 786.96,351.66 870,373.75 C938.49,391.97 961.1,378.28 1026,406.75 C1064.2,423.51 1088.4232,439.6147 1116.7332,462.4647 " fill="none" id="Course-to-Assessable" style="stroke:#181818;stroke-width:1.0;stroke-dasharray:7.0,7.0;"/><polygon fill="none" points="1130.74,473.77,1120.5017,457.7957,1112.9648,467.1336,1130.74,473.77" style="stroke:#181818;stroke-width:1.0;"/></g><!--link Course to Comparable--><g id="link_Course_Comparable"><path codeLine="121" d="M616.21,306.44 C697.48,332.56 786.26,357.53 870,373.75 C964.74,392.1 1215.81,365.39 1303,406.75 C1337.62,423.17 1356.0717,442.2129 1374.1817,467.3629 " fill="none" id="Course-to-Comparable" style="stroke:#181818;stroke-width:1.0;stroke-dasharray:7.0,7.0;"/><polygon fill="none" points="1384.7,481.97,1379.0508,463.8568,1369.3127,470.869,1384.7,481.97" style="stroke:#181818;stroke-width:1.0;"/></g><!--reverse link User to Student--><g id="link_User_Student"><path codeLine="123" d="M1870.4506,282.2446 C1825.0206,333.8846 1776.05,389.54 1730.63,441.17 " fill="none" id="User-backto-Student" style="stroke:#181818;stroke-width:1.0;"/><polygon fill="none" points="1882.34,268.73,1865.9458,278.2814,1874.9555,286.2077,1882.34,268.73" style="stroke:#181818;stroke-width:1.0;"/></g><!--reverse link User to Instructor--><g id="link_User_Instructor"><path codeLine="124" d="M1946,286.73 C1946,338.37 1946,389.54 1946,441.17 " fill="none" id="User-backto-Instructor" style="stroke:#181818;stroke-width:1.0;"/><polygon fill="none" points="1946,268.73,1940,286.73,1952,286.73,1946,268.73" style="stroke:#181818;stroke-width:1.0;"/></g><!--reverse link User to Admin--><g id="link_User_Admin"><path codeLine="125" d="M2043.1139,280.517 C2102.7139,332.157 2168.94,389.54 2228.53,441.17 " fill="none" id="User-backto-Admin" style="stroke:#181818;stroke-width:1.0;"/><polygon fill="none" points="2029.51,268.73,2039.1849,285.0516,2047.0429,275.9824,2029.51,268.73" style="stroke:#181818;stroke-width:1.0;"/></g><!--reverse link Course to Quiz--><g id="link_Course_Quiz"><path codeLine="127" d="M528.8359,323.8502 C602.6659,368.7002 673.18,411.54 735.42,449.35 " fill="none" id="Course-backto-Quiz" style="stroke:#181818;stroke-width:1.0;"/><polygon fill="#181818" points="518.58,317.62,521.6312,324.1538,528.8359,323.8502,525.7847,317.3165,518.58,317.62" style="stroke:#181818;stroke-width:1.0;"/><text fill="#000000" font-family="sans-serif" font-size="13" lengthAdjust="spacing" textLength="54" x="643" y="394.8169">contains</text><text fill="#000000" font-family="sans-serif" font-size="13" lengthAdjust="spacing" textLength="8" x="521.887" y="337.1918">1</text><text fill="#000000" font-family="sans-serif" font-size="13" lengthAdjust="spacing" textLength="36" x="685.9034" y="438.4789">many</text></g><!--reverse link Quiz to Question--><g id="link_Quiz_Question"><path codeLine="128" d="M841,591.69 C841,619.4 841,639.5 841,666.19 " fill="none" id="Quiz-backto-Question" style="stroke:#181818;stroke-width:1.0;"/><polygon fill="#181818" points="841,579.69,837,585.69,841,591.69,845,585.69,841,579.69" style="stroke:#181818;stroke-width:1.0;"/><text fill="#000000" font-family="sans-serif" font-size="13" lengthAdjust="spacing" textLength="54" x="842" y="632.4469">contains</text><text fill="#000000" font-family="sans-serif" font-size="13" lengthAdjust="spacing" textLength="8" x="832.5875" y="599.2607">1</text><text fill="#000000" font-family="sans-serif" font-size="13" lengthAdjust="spacing" textLength="36" x="802.8063" y="655.4304">many</text></g><!--SRC=[dLPRJo8n57xdLpIyE2oNP5-98N6zP36igmvgzedKcICs3ktO5brK_lkUNcQcWmDnIO3GS_dEwRdsW9p00-D0SfeyqJceblz34h6K2XHvRn52xvMMDD4aoQXIvDYoB8UGlXCSfqCIQyduFAHEcSwWpaX19PBbcWdUg47dTN8knLo2KaF2k7QavoLxUmEaJ9ZIXrTu6bb6rpaMRNhK8mtUz4Y39wLavKN7GIU2fyj47ocCYLe0rr5dI8nfn_OkeGEEK_YAUekSIfYAI0nzu0BsUn7PDUdEGKyOVpBQmVr32UKbClm9tLlZ5pykELFug-i9mkZXEO59eEQSgsIZmM3We4gWMvQ2g2Ez6DADpEeeWM05Wq159PdOM0I7UrKSVIORQkHv2SgafKgnE_iq6uH8XsgTROmUsOhbTMYQ5gIea3MPTVysObAGA__TsGIoVWMHXqOTPrGKkfI0fSJLAyXwA4jFckBum39GAwLX4KJp6cWwkvDCkoIzAqqrIzQaVpQUd5uUJNy61Yfc_2UUdlwQRSgGcj1DV7eTpuxZszbEhF69vJVoN5Me9W2iTmwIQkpJgc5CYP_XDI-fVenC0Benc_Db7YqLo0kw2FAQu-rVXGoQN0gJTmIoYXCnP_mBUfLjnfbcD6DlS1x_lcXGhHjuDK6VYdCbd9aXkS5VovAOb3Cf5YLl6uxJCIefPA1DYyAFbQ5nrFYaQi7ld5qVMXCjF_3A-MAahhqBeLZ7LwEZZIgpjRbPmTZgAyiF_GNvG1E_4yeZSJEHtcV5dDXlMAvheCTsRXhGm-cemWs6wRIQe-Xcq2ScQerxoyIrw5oM1Wk51p5sbWo6zSzAbHNjc6N-tD70HXwlH_X6lkeZF6Kgp-Zg13HbcOesnakiboaOS-56L9-oPjh2IUuossGBgS3H_MpCj-JSQKgHx-BZgl9rrL1JmNt672-EXI3a5wvK2UznAvpYknoMi10liDULDb9qb2vOCVwxzh27jmaE20ssRlvxi9LDswXUCx0pnRiQto-U0zmk6RLxx97bgkKV0uSV_NxmpAYHWxT0GHyCFaR1ZAYHgovljMntMX1Vt06bges0QAFVAl3Qtzla6rBR2yfNRVVA6E9pZcFakMhPyoSPlyqhkNy0]--></g></svg>