<?xml version="1.0" encoding="us-ascii" standalone="no"?><svg xmlns="http://www.w3.org/2000/svg" xmlns:xlink="http://www.w3.org/1999/xlink" contentStyleType="text/css" height="797px" preserveAspectRatio="none" style="width:359px;height:797px;background:#FFFFFF;" version="1.1" viewBox="0 0 359 797" width="359px" zoomAndPan="magnify"><defs/><g><!--cluster ByteWise--><g id="cluster_ByteWise"><rect fill="none" height="784" rx="2.5" ry="2.5" style="stroke:#181818;stroke-width:1.0;" width="261.11" x="92" y="7"/><text fill="#000000" font-family="sans-serif" font-size="14" font-weight="bold" lengthAdjust="spacing" textLength="73" x="186.055" y="21.9951">ByteWise</text></g><!--cluster Course Management--><g id="cluster_Course Management"><rect fill="none" height="427" rx="2.5" ry="2.5" style="stroke:#181818;stroke-width:1.0;" width="185.91" x="129.6" y="231"/><text fill="#000000" font-family="sans-serif" font-size="14" font-weight="bold" lengthAdjust="spacing" textLength="163" x="141.055" y="245.9951">Course Management</text></g><!--cluster Content Management--><g id="cluster_Content Management"><rect fill="none" height="157" rx="2.5" ry="2.5" style="stroke:#181818;stroke-width:1.0;" width="213.11" x="116" y="50"/><text fill="#000000" font-family="sans-serif" font-size="14" font-weight="bold" lengthAdjust="spacing" textLength="169" x="138.055" y="64.9951">Content Management</text></g><!--cluster User Management--><g id="cluster_User Management"><rect fill="none" height="85" rx="2.5" ry="2.5" style="stroke:#181818;stroke-width:1.0;" width="176.61" x="134.25" y="682"/><text fill="#000000" font-family="sans-serif" font-size="14" font-weight="bold" lengthAdjust="spacing" textLength="143" x="151.055" y="696.9951">User Management</text></g><g id="elem_UC1"><ellipse cx="222.5554" cy="350.9951" fill="#F1F1F1" rx="75.7754" ry="17.5551" style="stroke:#181818;stroke-width:0.5;"/><text fill="#000000" font-family="sans-serif" font-size="14" lengthAdjust="spacing" textLength="108" x="165.5554" y="354.7426">Enroll in Course</text></g><g id="elem_UC2"><ellipse cx="222.56" cy="281.998" fill="#F1F1F1" rx="68.24" ry="16.048" style="stroke:#181818;stroke-width:0.5;"/><text fill="#000000" font-family="sans-serif" font-size="14" lengthAdjust="spacing" textLength="88" x="175.56" y="285.7456">Drop Course</text></g><g id="elem_UC5"><ellipse cx="222.5568" cy="624.9974" fill="#F1F1F1" rx="72.6868" ry="16.9374" style="stroke:#181818;stroke-width:0.5;"/><text fill="#000000" font-family="sans-serif" font-size="14" lengthAdjust="spacing" textLength="100" x="169.5568" y="628.7449">Create Course</text></g><g id="elem_UC7"><ellipse cx="222.5568" cy="555.9974" fill="#F1F1F1" rx="72.6868" ry="16.9374" style="stroke:#181818;stroke-width:0.5;"/><text fill="#000000" font-family="sans-serif" font-size="14" lengthAdjust="spacing" textLength="100" x="169.5568" y="559.7449">Delete Course</text></g><g id="elem_UC10"><ellipse cx="222.5555" cy="489.0031" fill="#F1F1F1" rx="65.7655" ry="15.5531" style="stroke:#181818;stroke-width:0.5;"/><text fill="#000000" font-family="sans-serif" font-size="14" lengthAdjust="spacing" textLength="81" x="179.0555" y="492.7507">Add Course</text></g><g id="elem_UC11"><ellipse cx="222.5563" cy="421.0013" fill="#F1F1F1" rx="76.9563" ry="17.7913" style="stroke:#181818;stroke-width:0.5;"/><text fill="#000000" font-family="sans-serif" font-size="14" lengthAdjust="spacing" textLength="111" x="164.1675" y="424.7201">Remove Course</text></g><g id="elem_UC3"><ellipse cx="222.5597" cy="176.002" fill="#F1F1F1" rx="61.5597" ry="14.782" style="stroke:#181818;stroke-width:0.5;"/><text fill="#000000" font-family="sans-serif" font-size="14" lengthAdjust="spacing" textLength="69" x="185.0597" y="179.7495">Take Quiz</text></g><g id="elem_UC4"><ellipse cx="222.5567" cy="106.0013" fill="#F1F1F1" rx="90.5567" ry="20.5113" style="stroke:#181818;stroke-width:0.5;"/><text fill="#000000" font-family="sans-serif" font-size="14" lengthAdjust="spacing" textLength="143" x="151.0567" y="108.848">View Course Material</text></g><g id="elem_UC8"><ellipse cx="222.5573" cy="734.0015" fill="#F1F1F1" rx="72.3073" ry="16.8615" style="stroke:#181818;stroke-width:0.5;"/><text fill="#000000" font-family="sans-serif" font-size="14" lengthAdjust="spacing" textLength="99" x="170.0573" y="737.749">Manage Users</text></g><!--entity Student--><g id="elem_Student"><ellipse cx="39" cy="199.35" fill="#32CD32" rx="8" ry="8" style="stroke:#181818;stroke-width:0.5;"/><path d="M39,207.35 L39,234.35 M26,215.35 L52,215.35 M39,234.35 L26,249.35 M39,234.35 L52,249.35 " fill="none" style="stroke:#181818;stroke-width:0.5;"/><text fill="#000000" font-family="sans-serif" font-size="14" lengthAdjust="spacing" textLength="55" x="11.5" y="263.8451">Student</text></g><!--entity Instructor--><g id="elem_Instructor"><ellipse cx="39" cy="351.35" fill="#1E90FF" rx="8" ry="8" style="stroke:#181818;stroke-width:0.5;"/><path d="M39,359.35 L39,386.35 M26,367.35 L52,367.35 M39,386.35 L26,401.35 M39,386.35 L52,401.35 " fill="none" style="stroke:#181818;stroke-width:0.5;"/><text fill="#000000" font-family="sans-serif" font-size="14" lengthAdjust="spacing" textLength="66" x="6" y="415.8451">Instructor</text></g><!--entity Admin--><g id="elem_Admin"><ellipse cx="39" cy="595.35" fill="#A52A2A" rx="8" ry="8" style="stroke:#181818;stroke-width:0.5;"/><path d="M39,603.35 L39,630.35 M26,611.35 L52,611.35 M39,630.35 L26,645.35 M39,630.35 L52,645.35 " fill="none" style="stroke:#181818;stroke-width:0.5;"/><text fill="#000000" font-family="sans-serif" font-size="14" lengthAdjust="spacing" textLength="43" x="17.5" y="659.8451">Admin</text></g><!--link Student to UC1--><g id="link_Student_UC1"><path d="M51.34,267.58 C58.21,284.7 68.68,303.72 84,316 C102.94,331.18 121.8004,338.6259 145.0604,343.5559 " fill="none" id="Student-to-UC1" style="stroke:#32CD32;stroke-width:1.0;"/><polygon fill="#32CD32" points="150.93,344.8,142.955,339.0208,146.0387,343.7633,141.2962,346.847,150.93,344.8" style="stroke:#32CD32;stroke-width:1.0;"/></g><!--link Student to UC2--><g id="link_Student_UC2"><path d="M66.79,236.82 C96.18,245.4 138.0305,257.6183 172.6905,267.7383 " fill="none" id="Student-to-UC2" style="stroke:#32CD32;stroke-width:1.0;"/><polygon fill="#32CD32" points="178.45,269.42,170.9318,263.0578,173.6504,268.0186,168.6896,270.7372,178.45,269.42" style="stroke:#32CD32;stroke-width:1.0;"/></g><!--link Student to UC3--><g id="link_Student_UC3"><path d="M66.79,221.18 C97.27,212.28 141.5704,199.3512 176.4804,189.1612 " fill="none" id="Student-to-UC3" style="stroke:#32CD32;stroke-width:1.0;"/><polygon fill="#32CD32" points="182.24,187.48,172.4797,186.162,177.4403,188.881,174.7213,193.8416,182.24,187.48" style="stroke:#32CD32;stroke-width:1.0;"/></g><!--link Student to UC4--><g id="link_Student_UC4"><path d="M52.01,190.57 C58.95,174.09 69.29,155.93 84,144 C100.74,130.42 116.1985,123.2578 136.9585,117.6378 " fill="none" id="Student-to-UC4" style="stroke:#32CD32;stroke-width:1.0;"/><polygon fill="#32CD32" points="142.75,116.07,133.0175,114.5607,137.9237,117.3765,135.1079,122.2828,142.75,116.07" style="stroke:#32CD32;stroke-width:1.0;"/></g><!--link Instructor to UC4--><g id="link_Instructor_UC4"><path d="M55.05,342.8 C61.29,325.43 67.99,304.44 72,285 C78.35,254.2 63.91,168.19 84,144 C97.3,127.99 110.9066,120.0335 130.9466,114.3635 " fill="none" id="Instructor-to-UC4" style="stroke:#1E90FF;stroke-width:1.0;"/><polygon fill="#1E90FF" points="136.72,112.73,126.971,111.3313,131.9089,114.0912,129.1489,119.0291,136.72,112.73" style="stroke:#1E90FF;stroke-width:1.0;"/></g><!--link Instructor to UC3--><g id="link_Instructor_UC3"><path d="M52.81,342.59 C65.66,304.1 83.6,250.47 84,250 C110.05,219.11 146.7377,201.1781 177.5677,189.8581 " fill="none" id="Instructor-to-UC3" style="stroke:#1E90FF;stroke-width:1.0;"/><polygon fill="#1E90FF" points="183.2,187.79,173.3728,187.1372,178.5064,189.5134,176.1302,194.647,183.2,187.79" style="stroke:#1E90FF;stroke-width:1.0;"/></g><!--link Instructor to UC10--><g id="link_Instructor_UC10"><path d="M54.98,419.42 C61.95,432.79 71.51,446.74 84,456 C105.51,471.94 127.7266,479.2743 152.9366,483.6043 " fill="none" id="Instructor-to-UC10" style="stroke:#1E90FF;stroke-width:1.0;"/><polygon fill="#1E90FF" points="158.85,484.62,150.657,479.1542,153.9222,483.7736,149.3028,487.0388,158.85,484.62" style="stroke:#1E90FF;stroke-width:1.0;"/></g><!--link Instructor to UC11--><g id="link_Instructor_UC11"><path d="M72.46,388.15 C98.26,393.84 129.1106,400.6288 159.6506,407.3588 " fill="none" id="Instructor-to-UC11" style="stroke:#1E90FF;stroke-width:1.0;"/><polygon fill="#1E90FF" points="165.51,408.65,157.5817,402.8069,160.6272,407.574,155.8601,410.6194,165.51,408.65" style="stroke:#1E90FF;stroke-width:1.0;"/></g><!--link Admin to UC5--><g id="link_Admin_UC5"><path d="M60.83,625 C82.53,625 111.77,625 143.72,625 " fill="none" id="Admin-to-UC5" style="stroke:#A52A2A;stroke-width:1.0;"/><polygon fill="#A52A2A" points="149.72,625,140.72,621,144.72,625,140.72,629,149.72,625" style="stroke:#A52A2A;stroke-width:1.0;"/></g><!--link Admin to UC7--><g id="link_Admin_UC7"><path d="M60.76,606.16 C67.74,600.62 75.84,594.98 84,591 C108.26,579.18 131.0676,572.3476 155.9376,566.9276 " fill="none" id="Admin-to-UC7" style="stroke:#A52A2A;stroke-width:1.0;"/><polygon fill="#A52A2A" points="161.8,565.65,152.1547,563.6582,156.9147,566.7147,153.8581,571.4747,161.8,565.65" style="stroke:#A52A2A;stroke-width:1.0;"/></g><!--link Admin to UC8--><g id="link_Admin_UC8"><path d="M60.61,641.39 C67.85,646.89 76.14,652.92 84,658 C119.39,680.89 156.835,701.0944 185.185,715.6844 " fill="none" id="Admin-to-UC8" style="stroke:#A52A2A;stroke-width:1.0;"/><polygon fill="#A52A2A" points="190.52,718.43,184.3479,710.755,186.0742,716.142,180.6872,717.8683,190.52,718.43" style="stroke:#A52A2A;stroke-width:1.0;"/></g><!--SRC=[ZLHBRzim3BxhLn39eQS2IzEYFGt8eoW6R8SjVHoA7XIRSOJ8KY3H2x8X_xtK8yZ3MJ8V38lVH_8ZJKhZZ80iE5ND2Khbi21bZV0BPPRIoHgMibZ82YUqrWW15k8AnZXJ1a4MP9s7bQ8v-2KMQgOAAAnceuWOJAWfqH1qlwiQdnoYoS0tuyaryRCxjcM5RgWRpE2Wh9M1xj3PbGdf9aWW7PzoyA2ubbJCau9jofteGIJ_5S3FA80mrLo7s8WzzJH7y6jFMCFKDgQKRYr2WT9KNEfmJVYcFEOeLnodSNpy8Gstemv5lV1n93twoCYDWawBsCanmjDuBDW5Ee_6MQs1wqpy3aWFBwDUcpbsTdb8kccJHWubuI7jxaGir7XCks_J1cLv9EjBc_GBQ_lxA5OlwT_4TsxSm7EB_FcE6GhmXPOzomN2pqRzoSdwRSghmjNkJn4w9NLctsPbMHLBSV_nCuze9tKbE4RqETb3JhO9yyRb6Pwhu0318szCtfx6ArEb4SOoZRaFCvytHt5hd8nRwSNMUFs-MwYFwwznRlwDtPp1-cUmso1-Rr4FfEpPsNEtmblNytZ_0ixpTe7G2-BIHN6WAvdO8zuUYNntqdf_qlhm2G00]--></g></svg>